<svg width="64" height="64" viewBox="0 0 64 64" fill="none" xmlns="http://www.w3.org/2000/svg">
<mask id="mask0" mask-type="alpha" maskUnits="userSpaceOnUse" x="0" y="0" width="64" height="64">
<rect width="64" height="64" fill="white"/>
</mask>
<g mask="url(#mask0)">
<path d="M15 33H20" stroke="#7373FF" stroke-width="3" stroke-linecap="round"/>
<path d="M15 22.0001H20" stroke="#FF6652" stroke-width="3" stroke-linecap="round"/>
<path d="M25 33H49" stroke="#FF6652" stroke-width="3" stroke-linecap="round"/>
<path d="M25 22H49" stroke="#7373FF" stroke-width="3" stroke-linecap="round"/>
<path d="M47.4286 58.9059L46.5715 60.1369L47.4286 58.9059ZM31.2727 47.6572L32.1298 46.4262L31.2727 47.6572ZM2.5 9V44.1193H5.5V9H2.5ZM61.5 44.1193V9H58.5V44.1193H61.5ZM57 4.5H7V7.5H57V4.5ZM7 48.6193H29.5585V45.6193H7V48.6193ZM50 48.6193H57V45.6193H50V48.6193ZM30.4156 48.8883L46.5715 60.1369L48.2857 57.6749L32.1298 46.4262L30.4156 48.8883ZM50.5 58.0852V48.1193H47.5V58.0852H50.5ZM46.5715 60.1369C48.229 61.291 50.5 60.1049 50.5 58.0852H47.5C47.5 57.6813 47.9542 57.4441 48.2857 57.6749L46.5715 60.1369ZM50 45.6193C48.6193 45.6193 47.5 46.7386 47.5 48.1193H50.5C50.5 48.3954 50.2761 48.6193 50 48.6193V45.6193ZM29.5585 48.6193C29.865 48.6193 30.1641 48.7131 30.4156 48.8883L32.1298 46.4262C31.3752 45.9009 30.4779 45.6193 29.5585 45.6193V48.6193ZM61.5 9C61.5 6.51472 59.4853 4.5 57 4.5V7.5C57.8284 7.5 58.5 8.17157 58.5 9H61.5ZM58.5 44.1193C58.5 44.9477 57.8284 45.6193 57 45.6193V48.6193C59.4853 48.6193 61.5 46.6045 61.5 44.1193H58.5ZM2.5 44.1193C2.5 46.6045 4.51472 48.6193 7 48.6193V45.6193C6.17157 45.6193 5.5 44.9477 5.5 44.1193H2.5ZM5.5 9C5.5 8.17157 6.17157 7.5 7 7.5V4.5C4.51472 4.5 2.5 6.51472 2.5 9H5.5Z" fill="#7373FF"/>
</g>
</svg>
