<svg width="100" height="32" viewBox="0 0 100 32" fill="none" xmlns="http://www.w3.org/2000/svg">
<path d="M96.875 32H3.125C1.40625 32 0 30.56 0 28.8V3.2C0 1.44 1.40625 0 3.125 0H96.875C98.5938 0 100 1.44 100 3.2V28.8C100 30.56 98.5938 32 96.875 32Z" fill="black"/>
<path d="M21.0934 15.3452C21.0934 12.9427 23.1247 11.7802 23.2028 11.7027C22.0309 10.0752 20.3122 9.84274 19.6872 9.76524C18.2028 9.61024 16.7184 10.6177 16.0153 10.6177C15.2341 10.6177 14.0622 9.76524 12.8122 9.76524C11.1716 9.76524 9.6872 10.6952 8.82782 12.1677C7.10907 15.1127 8.35907 19.4527 9.9997 21.8552C10.8591 23.0177 11.7966 24.3352 13.0466 24.2577C14.2966 24.1802 14.7653 23.4827 16.2497 23.4827C17.7341 23.4827 18.1247 24.2577 19.4528 24.2577C20.7809 24.2577 21.6403 23.0952 22.4216 21.9327C23.3591 20.6152 23.7497 19.2977 23.7497 19.2202C23.6716 19.1427 21.0934 18.2127 21.0934 15.3452Z" fill="white"/>
<path d="M18.6715 8.21475C19.2965 7.36225 19.7653 6.27725 19.6871 5.11475C18.7496 5.19225 17.4996 5.73475 16.8746 6.58725C16.2496 7.28475 15.7028 8.44725 15.859 9.53225C16.8746 9.60975 17.9684 8.98975 18.6715 8.21475Z" fill="white"/>
<path d="M38.9063 24.1025H37.1875L36.25 21.1575H32.9688L32.1094 24.1025H30.4688L33.75 14.105H35.7813L38.9063 24.1025ZM35.9375 19.9175L35.0781 17.2825C35 17.05 34.8438 16.3525 34.5313 15.4225C34.4531 15.81 34.2969 16.5075 34.0625 17.2825L33.2031 19.9175H35.9375Z" fill="white"/>
<path d="M47.2656 20.4599C47.2656 21.6999 46.9531 22.6299 46.25 23.4049C45.625 24.0249 44.9219 24.3349 43.9844 24.3349C43.0469 24.3349 42.3438 24.0249 41.9531 23.3274V27.1249H40.3125V19.3749C40.3125 18.5999 40.3125 17.8249 40.2344 16.9724H41.6406L41.7188 18.1349C42.2656 17.2824 43.0469 16.8174 44.1406 16.8174C45 16.8174 45.7031 17.1274 46.25 17.8249C46.9531 18.4449 47.2656 19.2974 47.2656 20.4599ZM45.625 20.4599C45.625 19.7624 45.4688 19.1424 45.1563 18.7549C44.8438 18.2899 44.375 18.0574 43.75 18.0574C43.3594 18.0574 42.9688 18.2124 42.6563 18.4449C42.3438 18.6774 42.1094 19.0649 42.0313 19.4524C41.9531 19.6849 41.9531 19.8399 41.9531 19.9174V21.1574C41.9531 21.6999 42.1094 22.0874 42.4219 22.4749C42.7344 22.8624 43.2031 23.0174 43.6719 23.0174C44.2969 23.0174 44.7656 22.7849 45.0781 22.3199C45.4688 21.8549 45.625 21.2349 45.625 20.4599Z" fill="white"/>
<path d="M55.625 20.4599C55.625 21.6999 55.3125 22.6299 54.6094 23.4049C53.9844 24.0249 53.2812 24.3349 52.3437 24.3349C51.4062 24.3349 50.7031 24.0249 50.3125 23.3274V27.1249H48.6719V19.3749C48.6719 18.5999 48.6719 17.8249 48.5938 16.9724H50L50.0781 18.1349C50.625 17.2824 51.4062 16.8174 52.5 16.8174C53.3594 16.8174 54.0625 17.1274 54.6094 17.8249C55.3125 18.4449 55.625 19.2974 55.625 20.4599ZM53.9844 20.4599C53.9844 19.7624 53.8281 19.1424 53.5156 18.7549C53.2031 18.2899 52.7344 18.0574 52.1094 18.0574C51.7188 18.0574 51.3281 18.2124 51.0156 18.4449C50.7031 18.6774 50.4687 19.0649 50.3906 19.4524C50.3125 19.6849 50.3125 19.8399 50.3125 19.9174V21.1574C50.3125 21.6999 50.4687 22.0874 50.7812 22.4749C51.0937 22.8624 51.5625 23.0174 52.0313 23.0174C52.6563 23.0174 53.125 22.7849 53.4375 22.3199C53.8281 21.8549 53.9844 21.2349 53.9844 20.4599Z" fill="white"/>
<path d="M65 21.3123C65 22.1648 64.6875 22.8623 64.1406 23.4048C63.5156 24.0248 62.5781 24.2573 61.4063 24.2573C60.3125 24.2573 59.4531 24.0248 58.8281 23.6373L59.2187 22.3198C59.9219 22.7073 60.7031 22.9398 61.5625 22.9398C62.1875 22.9398 62.6563 22.7848 62.9688 22.5523C63.2813 22.2423 63.4375 21.9323 63.4375 21.4673C63.4375 21.0798 63.2813 20.6923 63.0469 20.4598C62.7344 20.1498 62.2656 19.9173 61.6406 19.6848C59.8437 19.0648 58.9844 18.0573 58.9844 16.8173C58.9844 15.9648 59.2969 15.3448 59.9219 14.8023C60.5469 14.2598 61.3281 14.0273 62.4219 14.0273C63.3594 14.0273 64.0625 14.1823 64.6875 14.4923L64.2969 15.8098C63.75 15.4998 63.125 15.3448 62.3437 15.3448C61.7969 15.3448 61.3281 15.4998 61.0156 15.7323C60.7813 15.9648 60.625 16.2748 60.625 16.6623C60.625 17.0498 60.7813 17.3598 61.0938 17.6698C61.3281 17.9023 61.875 18.1348 62.5781 18.4448C63.4375 18.7548 64.0625 19.2198 64.5313 19.6848C64.7656 20.0723 65 20.6148 65 21.3123Z" fill="white"/>
<path d="M70.3125 18.1348H68.5156V21.6223C68.5156 22.4748 68.8281 22.9398 69.4531 22.9398C69.7656 22.9398 70 22.9398 70.1562 22.8623L70.2344 24.1023C69.9219 24.2573 69.5312 24.2573 68.9844 24.2573C68.3594 24.2573 67.8125 24.1023 67.5 23.7148C67.1094 23.3273 66.9531 22.7073 66.9531 21.7773V18.1348H65.8594V16.8948H66.9531V15.5773L68.5156 15.1123V16.8948H70.3125V18.1348Z" fill="white"/>
<path d="M78.3594 20.4597C78.3594 21.5447 78.0469 22.4747 77.4219 23.1722C76.7188 23.8697 75.8594 24.2572 74.7656 24.2572C73.6719 24.2572 72.8125 23.8697 72.1875 23.1722C71.5625 22.4747 71.25 21.6222 71.25 20.5372C71.25 19.4522 71.5625 18.5222 72.2656 17.8247C72.8906 17.1272 73.8281 16.7397 74.9219 16.7397C76.0156 16.7397 76.875 17.1272 77.5 17.8247C78.0469 18.5222 78.3594 19.3747 78.3594 20.4597ZM76.6406 20.5372C76.6406 19.8397 76.4844 19.2972 76.1719 18.8322C75.8594 18.2897 75.3125 17.9797 74.6875 17.9797C74.0625 17.9797 73.5156 18.2897 73.2031 18.8322C72.8906 19.2972 72.7344 19.9172 72.7344 20.5372C72.7344 21.2347 72.8906 21.7772 73.2031 22.2422C73.5156 22.7847 74.0625 23.0947 74.6875 23.0947C75.3125 23.0947 75.7813 22.7847 76.1719 22.2422C76.4844 21.7772 76.6406 21.1572 76.6406 20.5372Z" fill="white"/>
<path d="M83.5937 18.2901C83.4375 18.2901 83.2812 18.2126 83.0469 18.2126C82.5 18.2126 82.0312 18.4451 81.7187 18.8326C81.4844 19.2201 81.3281 19.6851 81.3281 20.2276V24.0251H79.6875V19.0651C79.6875 18.2126 79.6875 17.5151 79.6094 16.8176H81.0156L81.0937 18.2126H81.1719C81.3281 17.7476 81.6406 17.3601 81.9531 17.0501C82.3438 16.8176 82.7344 16.6626 83.125 16.6626C83.2812 16.6626 83.4375 16.6626 83.5156 16.6626V18.2901H83.5937Z" fill="white"/>
<path d="M90.7812 20.1497C90.7812 20.4597 90.7812 20.6922 90.7031 20.8472H85.8594C85.8594 21.5447 86.0937 22.0872 86.5625 22.4747C86.9531 22.7847 87.5 23.0172 88.125 23.0172C88.8281 23.0172 89.5312 22.9397 90.0781 22.7072L90.3125 23.7922C89.6094 24.1022 88.8281 24.2572 87.8906 24.2572C86.7969 24.2572 85.8594 23.9472 85.2344 23.2497C84.6094 22.6297 84.2969 21.6997 84.2969 20.6147C84.2969 19.5297 84.6094 18.5997 85.1562 17.9022C85.7812 17.1272 86.6406 16.7397 87.7344 16.7397C88.75 16.7397 89.6094 17.1272 90.0781 17.9022C90.625 18.5222 90.7812 19.2972 90.7812 20.1497ZM89.2969 19.7622C89.2969 19.2972 89.2188 18.9097 88.9844 18.5222C88.6719 18.0572 88.2812 17.8247 87.7344 17.8247C87.1875 17.8247 86.7969 18.0572 86.4844 18.4447C86.25 18.7547 86.0937 19.2197 86.0156 19.6847H89.2969V19.7622Z" fill="white"/>
<path d="M35.4687 7.98271C35.4687 8.83521 35.2344 9.53272 34.6875 9.99771C34.2187 10.3852 33.5156 10.6177 32.5781 10.6177C32.1094 10.6177 31.7188 10.6177 31.4062 10.5402V5.73522C31.7969 5.65772 32.2656 5.65771 32.8125 5.65771C33.6719 5.65771 34.2969 5.81272 34.7656 6.20022C35.1562 6.58772 35.4687 7.20771 35.4687 7.98271ZM34.6094 7.98271C34.6094 7.44021 34.4531 6.97522 34.1406 6.66522C33.8281 6.35522 33.3594 6.20022 32.8125 6.20022C32.5781 6.20022 32.3438 6.20022 32.1875 6.27772V9.92021C32.2656 9.92021 32.5 9.92021 32.7344 9.92021C33.3594 9.92021 33.8281 9.76522 34.1406 9.45522C34.4531 9.14522 34.6094 8.60271 34.6094 7.98271Z" fill="white"/>
<path d="M39.8438 8.75746C39.8438 9.29996 39.6875 9.76496 39.375 10.075C39.0625 10.4625 38.5938 10.6175 38.0469 10.6175C37.5 10.6175 37.1094 10.4625 36.7969 10.075C36.4844 9.76496 36.3281 9.29996 36.3281 8.75746C36.3281 8.21496 36.4844 7.74996 36.7969 7.43996C37.1094 7.05246 37.5781 6.89746 38.125 6.89746C38.6719 6.89746 39.0625 7.05246 39.375 7.43996C39.6875 7.74996 39.8438 8.21496 39.8438 8.75746ZM39.0625 8.75746C39.0625 8.44746 38.9844 8.13746 38.8281 7.90496C38.6719 7.59496 38.4375 7.51746 38.125 7.51746C37.8125 7.51746 37.5781 7.67246 37.4219 7.90496C37.2656 8.13746 37.1875 8.44746 37.1875 8.75746C37.1875 9.06746 37.2656 9.37746 37.4219 9.60996C37.5781 9.91996 37.8125 9.99746 38.125 9.99746C38.4375 9.99746 38.6719 9.84246 38.8281 9.53246C38.9844 9.37746 39.0625 9.06746 39.0625 8.75746Z" fill="white"/>
<path d="M45.8594 6.9751L44.7656 10.5401H44.0625L43.5938 8.9901C43.4375 8.6026 43.3594 8.2151 43.2813 7.8276C43.2031 8.2151 43.125 8.6026 42.9688 8.9901L42.5 10.5401H41.7969L40.625 6.9751H41.4063L41.7969 8.6801C41.875 9.0676 41.9531 9.4551 42.0313 9.8426C42.1094 9.5326 42.1875 9.1451 42.3438 8.6801L42.8125 6.9751H43.4375L43.9063 8.6026C44.0625 8.9901 44.1406 9.3776 44.2188 9.7651C44.2969 9.3776 44.375 8.9901 44.4531 8.6026L44.9219 6.9751H45.8594Z" fill="white"/>
<path d="M49.9219 10.5403H49.1406V8.52531C49.1406 7.90531 48.9062 7.59531 48.4375 7.59531C48.2031 7.59531 48.0469 7.67281 47.8906 7.82781C47.7344 7.98281 47.6562 8.21531 47.6562 8.44781V10.5403H46.875V7.98281C46.875 7.67281 46.875 7.36281 46.875 6.97531H47.5781V7.51781C47.6563 7.36281 47.8125 7.20781 47.9688 7.05281C48.2031 6.89781 48.4375 6.82031 48.6719 6.82031C48.9844 6.82031 49.2969 6.89781 49.5313 7.13031C49.8438 7.36281 49.9219 7.75031 49.9219 8.29281V10.5403Z" fill="white"/>
<path d="M52.1094 10.5402H51.3281V5.34766H52.1094V10.5402Z" fill="white"/>
<path d="M56.7969 8.75746C56.7969 9.29996 56.6406 9.76496 56.3281 10.075C56.0156 10.4625 55.5469 10.6175 55 10.6175C54.4531 10.6175 54.0625 10.4625 53.75 10.075C53.4375 9.76496 53.2812 9.29996 53.2812 8.75746C53.2812 8.21496 53.4375 7.74996 53.75 7.43996C54.0625 7.12996 54.5312 6.89746 55.0781 6.89746C55.625 6.89746 56.0156 7.05246 56.3281 7.43996C56.6406 7.74996 56.7969 8.21496 56.7969 8.75746ZM56.0156 8.75746C56.0156 8.44746 55.9375 8.13746 55.7812 7.90496C55.625 7.59496 55.3906 7.51746 55.0781 7.51746C54.7656 7.51746 54.5313 7.67246 54.375 7.90496C54.2188 8.13746 54.1406 8.44746 54.1406 8.75746C54.1406 9.06746 54.2188 9.37746 54.375 9.60996C54.5313 9.91996 54.7656 9.99746 55.0781 9.99746C55.3906 9.99746 55.625 9.84246 55.7812 9.53246C55.9375 9.37746 56.0156 9.06746 56.0156 8.75746Z" fill="white"/>
<path d="M60.625 10.54H59.9219L59.8438 10.1525C59.6094 10.4625 59.2188 10.6175 58.8281 10.6175C58.5156 10.6175 58.2031 10.54 58.0469 10.3075C57.8906 10.075 57.7344 9.84246 57.7344 9.60996C57.7344 9.14496 57.8906 8.83496 58.2813 8.60246C58.6719 8.36996 59.1406 8.29246 59.8438 8.29246V8.21496C59.8438 7.74996 59.6094 7.51746 59.1406 7.51746C58.75 7.51746 58.5156 7.59496 58.2031 7.74996L58.0469 7.20746C58.3594 6.97496 58.75 6.89746 59.2969 6.89746C60.2344 6.89746 60.7031 7.36246 60.7031 8.36996V9.68746C60.625 10.075 60.625 10.3075 60.625 10.54ZM59.8438 9.29996V8.75746C58.9844 8.75746 58.5156 8.98996 58.5156 9.45496C58.5156 9.60996 58.5938 9.76496 58.6719 9.84246C58.75 9.91996 58.9063 9.99746 59.0625 9.99746C59.2188 9.99746 59.375 9.91996 59.5313 9.84246C59.6875 9.76496 59.7656 9.60996 59.8438 9.45496C59.8438 9.45496 59.8438 9.37746 59.8438 9.29996Z" fill="white"/>
<path d="M65.1562 10.5398H64.4531V9.9973C64.2187 10.4623 63.8281 10.6173 63.2812 10.6173C62.8125 10.6173 62.5 10.4623 62.1875 10.1523C61.875 9.8423 61.7969 9.3773 61.7969 8.8348C61.7969 8.2923 61.9531 7.8273 62.2656 7.43981C62.5781 7.1298 62.9688 6.9748 63.3594 6.9748C63.8281 6.9748 64.1406 7.1298 64.375 7.43981V5.4248H65.1562V9.6098C65.1562 9.9198 65.1562 10.2298 65.1562 10.5398ZM64.375 9.06731V8.4473C64.375 8.3698 64.375 8.2923 64.375 8.2148C64.2969 8.0598 64.2187 7.9048 64.0625 7.7498C63.9062 7.5948 63.75 7.5948 63.5156 7.5948C63.2031 7.5948 62.9687 7.7498 62.8125 7.9823C62.6562 8.2148 62.5781 8.5248 62.5781 8.9123C62.5781 9.2998 62.6562 9.5323 62.8125 9.7648C62.9687 9.9973 63.2031 10.1523 63.5156 10.1523C63.75 10.1523 63.9844 10.0748 64.1406 9.84231C64.2969 9.53231 64.375 9.29981 64.375 9.06731Z" fill="white"/>
<path d="M71.9531 8.75746C71.9531 9.29996 71.7969 9.76496 71.4844 10.075C71.1719 10.4625 70.7031 10.6175 70.1562 10.6175C69.6094 10.6175 69.2187 10.4625 68.9062 10.075C68.5937 9.76496 68.4375 9.29996 68.4375 8.75746C68.4375 8.21496 68.5937 7.74996 68.9062 7.43996C69.2187 7.05246 69.6875 6.89746 70.2344 6.89746C70.7813 6.89746 71.1719 7.05246 71.4844 7.43996C71.7969 7.74996 71.9531 8.21496 71.9531 8.75746ZM71.0937 8.75746C71.0937 8.44746 71.0156 8.13746 70.8594 7.90496C70.7031 7.59496 70.4687 7.51746 70.1562 7.51746C69.8437 7.51746 69.6094 7.67246 69.4531 7.90496C69.2969 8.13746 69.2188 8.44746 69.2188 8.75746C69.2188 9.06746 69.2969 9.37746 69.4531 9.60996C69.6094 9.91996 69.8437 9.99746 70.1562 9.99746C70.4687 9.99746 70.7031 9.84246 70.8594 9.53246C71.0156 9.37746 71.0937 9.06746 71.0937 8.75746Z" fill="white"/>
<path d="M76.25 10.5403H75.4688V8.52531C75.4688 7.90531 75.2344 7.59531 74.7656 7.59531C74.5312 7.59531 74.375 7.67281 74.2188 7.82781C74.0625 7.98281 73.9844 8.21531 73.9844 8.44781V10.5403H73.2031V7.98281C73.2031 7.67281 73.2031 7.36281 73.2031 6.97531H73.9063V7.51781C73.9844 7.36281 74.1406 7.20781 74.2969 7.05281C74.5313 6.89781 74.7656 6.82031 75 6.82031C75.3125 6.82031 75.625 6.89781 75.8594 7.13031C76.1719 7.36281 76.25 7.75031 76.25 8.29281V10.5403Z" fill="white"/>
<path d="M81.5625 7.59506H80.7031V9.30006C80.7031 9.76506 80.8594 9.92006 81.1719 9.92006C81.3281 9.92006 81.4063 9.92006 81.5625 9.92006V10.5401C81.4063 10.6176 81.1719 10.6176 80.9375 10.6176C80.625 10.6176 80.3906 10.5401 80.2344 10.3076C80.0781 10.1526 80 9.76506 80 9.37756V7.59506H79.4531V6.97506H80V6.35506L80.7813 6.12256V6.97506H81.6406V7.59506H81.5625Z" fill="white"/>
<path d="M85.7812 10.5402H85V8.52516C85 7.90516 84.7656 7.59516 84.2969 7.59516C83.9062 7.59516 83.6719 7.75016 83.5156 8.13766C83.5156 8.21516 83.5156 8.29266 83.5156 8.44766V10.5402H82.7344V5.34766H83.5156V7.51766C83.75 7.13016 84.1406 6.89766 84.6094 6.89766C84.9219 6.89766 85.2344 6.97516 85.3906 7.20766C85.625 7.44016 85.7812 7.90516 85.7812 8.37016V10.5402Z" fill="white"/>
<path d="M90.0781 8.6026C90.0781 8.7576 90.0781 8.8351 90.0781 8.9901H87.7344C87.7344 9.3776 87.8906 9.6101 88.0469 9.7651C88.2812 9.9201 88.5156 9.9976 88.8281 9.9976C89.2187 9.9976 89.5313 9.9201 89.7656 9.8426L89.9219 10.3851C89.6094 10.5401 89.2188 10.6176 88.75 10.6176C88.2031 10.6176 87.7344 10.4626 87.4219 10.1526C87.1094 9.8426 86.9531 9.3776 86.9531 8.8351C86.9531 8.2926 87.1094 7.8276 87.4219 7.5176C87.7344 7.1301 88.125 6.9751 88.6719 6.9751C89.2187 6.9751 89.6094 7.1301 89.8437 7.5176C90 7.7501 90.0781 8.1376 90.0781 8.6026ZM89.375 8.3701C89.375 8.1376 89.2969 7.9051 89.2187 7.7501C89.0625 7.5176 88.9063 7.4401 88.5938 7.4401C88.3594 7.4401 88.125 7.5176 87.9688 7.7501C87.8125 7.9051 87.7344 8.1376 87.7344 8.3701H89.375Z" fill="white"/>
</svg>
