<svg width="100" height="32" viewBox="0 0 100 32" fill="none" xmlns="http://www.w3.org/2000/svg">
<path d="M96.2963 32H3.70371C1.66669 32 0 30.2 0 28V4.00002C0 1.8 1.66666 0 3.70371 0H96.2963C98.3333 0 100 1.8 100 4.00002V28C100 30.2 98.3333 32 96.2963 32" fill="black"/>
<path d="M96.2963 0H3.70371C1.66669 0 0 1.8 0 4.00002V28C0 30.2 1.66666 32 3.70371 32H96.2963C98.3333 32 100 30.2 100 28V4.00002C100 1.8 98.3334 0 96.2963 0H96.2963ZM96.2963 0.63998C98.0119 0.63998 99.4074 2.14753 99.4074 4.00002V28C99.4074 29.8528 98.0118 31.3603 96.2963 31.3603H3.70371C1.98847 31.3603 0.592599 29.8528 0.592599 28V4.00002C0.592599 2.14753 1.98843 0.640016 3.70371 0.640016H96.2963" fill="#A6A6A6"/>
<path d="M35.1245 8.68278C35.1245 9.31115 34.9407 9.81152 34.5727 10.1848C34.1546 10.6286 33.6097 10.8507 32.9398 10.8507C32.2984 10.8507 31.7529 10.6257 31.3044 10.1751C30.8551 9.72483 30.6309 9.16644 30.6309 8.50023C30.6309 7.83371 30.8551 7.27566 31.3044 6.825C31.7529 6.37474 32.2984 6.14941 32.9398 6.14941C33.2581 6.14941 33.5629 6.21245 33.8522 6.33814C34.1415 6.46413 34.3736 6.63139 34.5472 6.84084L34.1566 7.23663C33.8623 6.88068 33.4572 6.70285 32.9398 6.70285C32.472 6.70285 32.0675 6.86929 31.7261 7.20238C31.3846 7.53581 31.2139 7.9682 31.2139 8.50023C31.2139 9.03229 31.3846 9.46465 31.7261 9.79811C32.0675 10.1312 32.472 10.2976 32.9398 10.2976C33.4361 10.2976 33.8499 10.1303 34.1812 9.79517C34.3962 9.57686 34.5206 9.27339 34.5538 8.88371H32.9398V8.34319H35.0935C35.1143 8.46072 35.1245 8.57351 35.1245 8.68278" fill="white"/>
<path d="M35.1243 8.68259H35.0502C35.0496 9.29662 34.8725 9.77354 34.5201 10.1316L34.5193 10.1322L34.519 10.1328C34.1142 10.5613 33.5938 10.7746 32.9396 10.7755C32.3153 10.7746 31.7927 10.559 31.3563 10.1219C30.9209 9.68392 30.7056 9.14922 30.7047 8.50003C30.7056 7.85053 30.9209 7.31615 31.3563 6.87846C31.7927 6.44105 32.3153 6.22513 32.9396 6.22421C33.2484 6.22421 33.5424 6.28522 33.8227 6.40677C34.1034 6.52926 34.3251 6.68977 34.4903 6.88905L34.547 6.84064L34.4947 6.78762L34.104 7.18368L34.1563 7.23643L34.2134 7.18843C33.9055 6.81486 33.4733 6.62654 32.9396 6.62765C32.4544 6.62704 32.0276 6.80259 31.6746 7.14832C31.3181 7.49516 31.139 7.95189 31.1396 8.50003C31.139 9.04821 31.3181 9.5049 31.6746 9.85177C32.0276 10.1975 32.4544 10.373 32.9396 10.3724C33.4523 10.3733 33.8893 10.1972 34.2333 9.848C34.4631 9.61475 34.5933 9.29167 34.6275 8.88995L34.6344 8.80852H33.0137V8.41799H35.0933V8.34299L35.0204 8.35617C35.0406 8.4699 35.0502 8.57796 35.0502 8.68259H35.1984C35.1984 8.56859 35.1879 8.45143 35.1662 8.32958L35.1553 8.26799H32.8656V8.95851H34.5536V8.88351L34.4799 8.87708C34.4472 9.25446 34.3285 9.53864 34.1286 9.74199C33.8103 10.063 33.4197 10.2215 32.9396 10.2224C32.4892 10.2218 32.1069 10.0648 31.7773 9.74398C31.451 9.42434 31.2886 9.01625 31.2878 8.50003C31.2886 7.98381 31.451 7.57572 31.7773 7.25608C32.1069 6.93529 32.4891 6.77825 32.9396 6.77765C33.4405 6.77886 33.8188 6.94642 34.0997 7.2848L34.1518 7.34749L34.5994 6.8937L34.6474 6.84509L34.6037 6.79258C34.4217 6.57291 34.1793 6.39855 33.8812 6.26911C33.5826 6.13927 33.2675 6.07422 32.9396 6.07422C32.2811 6.07365 31.7128 6.30801 31.2519 6.77182C30.7892 7.23471 30.556 7.81656 30.5566 8.50003C30.556 9.1832 30.7892 9.76538 31.2522 10.2285C31.7128 10.6921 32.2811 10.9261 32.9396 10.9255C33.6254 10.9261 34.1943 10.6955 34.626 10.2364L34.5725 10.1846L34.6248 10.2377C35.0085 9.84945 35.1989 9.32504 35.1984 8.68259H35.1243H35.1243ZM38.5386 6.80286H36.5146V8.22967H38.3399V8.77039H36.5146V10.1972H38.5386V10.75H35.944V6.25003H38.5386V6.80286Z" fill="white"/>
<path d="M38.5388 6.80263V6.72763H36.4407V8.30443H38.266V8.69496L36.4407 8.69516V10.272H38.4647V10.6748H36.0183V6.3248H38.4647V6.80263H38.5388V6.72763V6.80263H38.6128V6.1748H35.8701V10.8248H38.6128V10.122H36.5888V8.84516H38.4141V8.15444H36.5888V6.87763H38.6128V6.80263H38.5388ZM40.9471 10.7498H40.3756V6.80259H39.1342V6.24977H42.1884V6.80259H40.9471V10.7498" fill="white"/>
<path d="M40.9474 10.7498V10.6748H40.45V6.72763H39.2087V6.32483H42.1147V6.72763H40.8734V10.7498H40.9474V10.6748V10.7498H41.0215V6.87763H42.2628V6.1748H39.0605V6.87759H40.3019V10.8248H41.0215V10.7498H40.9474V10.7498ZM44.3985 10.7498V6.24977H44.9694V10.7498H44.3985" fill="white"/>
<path d="M44.3983 10.7498H44.4724V6.3248H44.8951V10.6748H44.3983V10.7498H44.4724H44.3983V10.8248H45.0432V6.1748H44.3242V10.8248H44.3983V10.7498V10.7498ZM47.5024 10.7498H46.931V6.80259H45.6897V6.24977H48.7438V6.80259H47.5024V10.7498" fill="white"/>
<path d="M47.502 10.7503V10.6752H47.0046V6.72806H45.7634V6.32526H48.6693V6.72806H47.428V10.7502H47.502V10.6752V10.7502H47.5761V6.87805H48.8174V6.17523H45.6152V6.87802H46.8565V10.8252H47.5761V10.7502H47.502V10.7503ZM51.6878 9.79197C52.0168 10.1291 52.4193 10.2976 52.8953 10.2976C53.3713 10.2976 53.774 10.1291 54.1025 9.79197C54.4318 9.45477 54.5967 9.02373 54.5967 8.50023C54.5967 7.97676 54.4318 7.54572 54.1025 7.20852C53.774 6.87131 53.3713 6.70285 52.8953 6.70285C52.4193 6.70285 52.0168 6.87131 51.6878 7.20852C51.3594 7.54572 51.1945 7.97673 51.1945 8.50023C51.1945 9.02373 51.3594 9.45477 51.6878 9.79197ZM54.5249 10.1687C54.088 10.6236 53.5446 10.8507 52.8953 10.8507C52.2454 10.8507 51.7022 10.6236 51.2663 10.1687C50.829 9.71425 50.6114 9.15798 50.6114 8.50023C50.6114 7.84247 50.829 7.28611 51.2663 6.83177C51.7023 6.37673 52.2454 6.14941 52.8953 6.14941C53.5412 6.14941 54.0831 6.37795 54.5221 6.83471C54.9604 7.29143 55.1797 7.84659 55.1797 8.50023C55.1797 9.15798 54.9609 9.71425 54.5249 10.1687Z" fill="white"/>
<path d="M51.6885 9.79178L51.6359 9.8445C51.977 10.1952 52.4027 10.3733 52.896 10.3724C53.389 10.3733 53.8153 10.1952 54.1559 9.8445C54.4993 9.49347 54.672 9.03938 54.6715 8.50003C54.672 7.96072 54.4993 7.50659 54.1559 7.15557C53.8153 6.80488 53.389 6.62678 52.896 6.62765C52.4027 6.62678 51.977 6.80488 51.6359 7.15557C51.2933 7.50659 51.1202 7.96072 51.1211 8.50003C51.1202 9.03934 51.2933 9.49347 51.6359 9.8445L51.6885 9.79178L51.7412 9.73903C51.427 9.41527 51.2699 9.00803 51.2693 8.50003C51.2699 7.99207 51.427 7.58482 51.7412 7.26104C52.0583 6.93735 52.4371 6.77856 52.896 6.77768C53.3546 6.77856 53.7342 6.93735 54.0505 7.26104C54.3653 7.58482 54.5225 7.99207 54.523 8.50003C54.5225 9.00799 54.3653 9.41527 54.0505 9.73903C53.7342 10.0627 53.3546 10.2215 52.896 10.2224C52.4371 10.2215 52.0583 10.0627 51.7412 9.73903L51.6885 9.79178ZM54.5256 10.1685L54.4727 10.1164C54.0479 10.557 53.5285 10.7747 52.896 10.7755C52.2632 10.7746 51.7438 10.557 51.3198 10.1164L51.3178 10.114L51.3198 10.1164C50.896 9.67424 50.6868 9.14107 50.6862 8.50003C50.6868 7.859 50.896 7.32582 51.3198 6.88372C51.7438 6.44307 52.2632 6.22513 52.896 6.22425C53.5245 6.22513 54.0427 6.44398 54.4698 6.88693C54.8951 7.33108 55.1055 7.86341 55.1064 8.50003C55.1055 9.14107 54.8957 9.67424 54.4727 10.1164L54.5256 10.1685L54.5789 10.2206C55.0279 9.75366 55.255 9.17444 55.2545 8.50003C55.2551 7.82947 55.0271 7.25143 54.5759 6.7824C54.1246 6.31152 53.5592 6.07341 52.896 6.07422C52.2294 6.07341 51.6622 6.3104 51.2137 6.77947V6.77913C50.7638 7.24641 50.5375 7.82563 50.5381 8.50003C50.5375 9.17444 50.7638 9.75366 51.2137 10.2209L51.2157 10.223L51.2137 10.2206C51.6622 10.6897 52.2294 10.9261 52.896 10.9255C53.5624 10.9261 54.1295 10.6897 54.5789 10.2206L54.5256 10.1685ZM55.9819 10.7501V6.25H56.677L58.837 9.75069H58.8616L58.837 8.88348V6.25H59.4085V10.75H58.8124L56.5525 7.07966H56.5279L56.5525 7.94717V10.75H55.9819" fill="white"/>
<path d="M55.9818 10.7498H56.0559V6.3248H56.6358L58.7958 9.82549H58.9375L58.9109 8.88217V6.32483H59.3343V10.6748H58.8534L56.5936 7.00446H56.4518L56.4783 7.94819V10.6748H55.9818V10.7498H56.0559H55.9818V10.8248H56.6265V7.94579L56.6019 7.07744L56.5278 7.07946V7.15446H56.5524V7.07946L56.4896 7.11934L58.7712 10.8248H59.4824V6.1748H58.7628V8.88416L58.7874 9.75251L58.8615 9.75049V9.67549H58.8369V9.75049L58.8997 9.71068L56.7179 6.1748H55.9078V10.8248H55.9819V10.7498L55.9818 10.7498ZM79.2119 23.4998H80.5941V14.1239H79.2119L79.2119 23.4998ZM91.6616 17.5013L90.0771 21.5662H90.0297L88.3853 17.5013H86.8963L89.3623 23.1828L87.9564 26.3431H89.3986L93.1986 17.5013L91.6616 17.5013ZM83.823 22.4349C83.3697 22.4349 82.7386 22.2058 82.7386 21.6386C82.7386 20.9149 83.5252 20.6375 84.2037 20.6375C84.812 20.6375 85.0971 20.7702 85.4667 20.9513C85.3593 21.8197 84.6208 22.4349 83.823 22.4349ZM83.9897 17.2962C82.9889 17.2962 81.9527 17.7426 81.5238 18.7318L82.7504 19.2503C83.0126 18.7318 83.5008 18.5627 84.0134 18.5627C84.7282 18.5627 85.4549 18.9972 85.4667 19.7692V19.8656C85.2164 19.7208 84.6808 19.5037 84.0252 19.5037C82.703 19.5037 81.3564 20.2393 81.3564 21.6145C81.3564 22.8691 82.4408 23.6773 83.6556 23.6773C84.5853 23.6773 85.0971 23.2552 85.4193 22.7607H85.4667V23.4843H86.8008V19.8895C86.8008 18.2252 85.5741 17.2962 83.9897 17.2962ZM75.4475 18.6426H73.4816V15.4288H75.4475C76.4808 15.4288 77.0675 16.2951 77.0675 17.0357C77.0675 17.7623 76.4808 18.6426 75.4475 18.6426ZM75.4119 14.1239H72.1001V23.4998H73.4815V19.9476H75.4119C76.9438 19.9476 78.4497 18.8246 78.4497 17.0357C78.4497 15.2469 76.9438 14.1239 75.4119 14.1239ZM57.3519 22.4366C56.397 22.4366 55.5976 21.6272 55.5976 20.5153C55.5976 19.3919 56.397 18.57 57.3519 18.57C58.2947 18.57 59.0345 19.3918 59.0345 20.5153C59.0345 21.6272 58.2947 22.4366 57.3519 22.4366H57.3519ZM58.939 18.0263H58.8913C58.5811 17.6518 57.9841 17.3135 57.2324 17.3135C55.6572 17.3135 54.2133 18.7151 54.2133 20.5153C54.2133 22.3036 55.6571 23.6932 57.2324 23.6932C57.9841 23.6932 58.5811 23.3548 58.8913 22.9683H58.939V23.4274C58.939 24.648 58.2947 25.3004 57.2564 25.3004C56.4092 25.3004 55.884 24.684 55.669 24.1645L54.4639 24.672C54.81 25.5178 55.7289 26.557 57.2564 26.557C58.8794 26.557 60.2518 25.5901 60.2518 23.2341V17.5069H58.939V18.0263ZM61.2064 23.4998H62.5907V14.1236H61.2064V23.4998ZM64.6314 20.4067C64.5955 19.1741 65.5741 18.546 66.2781 18.546C66.8275 18.546 67.2926 18.8237 67.4475 19.2228L64.6314 20.4067ZM68.9275 19.3434C68.6652 18.6303 67.8652 17.3135 66.2304 17.3135C64.6074 17.3135 63.259 18.6063 63.259 20.5033C63.259 22.2916 64.5955 23.6932 66.3855 23.6932C67.8297 23.6932 68.6652 22.799 69.0112 22.2795L67.9371 21.5544C67.5793 22.0862 67.0897 22.4366 66.3855 22.4366C65.6815 22.4366 65.1804 22.1103 64.858 21.4701L69.0704 19.7059L68.9275 19.3434ZM35.3658 18.2923V19.6455H38.564C38.4685 20.4067 38.2179 20.9624 37.836 21.3491C37.3707 21.8205 36.6427 22.3399 35.3658 22.3399C33.3967 22.3399 31.8574 20.733 31.8574 18.7393C31.8574 16.7457 33.3967 15.1385 35.3658 15.1385C36.428 15.1385 37.2035 15.5615 37.7763 16.1052L38.7191 15.1508C37.9196 14.3773 36.8574 13.7853 35.3658 13.7853C32.6687 13.7853 30.4014 16.0086 30.4014 18.7393C30.4014 21.4701 32.6687 23.6932 35.3658 23.6932C36.8218 23.6932 37.9196 23.2101 38.7787 22.3036C39.6618 21.4095 39.9364 20.153 39.9364 19.1381C39.9364 18.8237 39.9127 18.534 39.8646 18.2923H35.3658ZM43.5724 22.4366C42.6175 22.4366 41.7941 21.6391 41.7941 20.5033C41.7941 19.3554 42.6175 18.57 43.5724 18.57C44.5269 18.57 45.3504 19.3554 45.3504 20.5033C45.3504 21.6391 44.5269 22.4366 43.5724 22.4366ZM43.5724 17.3135C41.8299 17.3135 40.4098 18.6546 40.4098 20.5033C40.4098 22.3399 41.8299 23.6932 43.5724 23.6932C45.3146 23.6932 46.7347 22.3399 46.7347 20.5033C46.7347 18.6546 45.3146 17.3135 43.5724 17.3135ZM50.4711 22.4366C49.5166 22.4366 48.693 21.6391 48.693 20.5033C48.693 19.3554 49.5166 18.57 50.4711 18.57C51.4257 18.57 52.2492 19.3554 52.2492 20.5033C52.2492 21.6391 51.4257 22.4366 50.4711 22.4366H50.4711ZM50.4711 17.3135C48.7286 17.3135 47.3088 18.6546 47.3088 20.5033C47.3088 22.3399 48.7286 23.6932 50.4711 23.6932C52.2133 23.6932 53.6335 22.3399 53.6335 20.5033C53.6335 18.6546 52.2133 17.3135 50.4711 17.3135H50.4711Z" fill="white"/>
<path d="M7.78369 6.7088C7.5351 6.93588 7.38672 7.31464 7.38672 7.81741V7.70375V24.2946V24.1853C7.38672 24.6496 7.51399 25.0082 7.72953 25.2391L7.78455 25.2924V25.2927C7.95901 25.4521 8.18272 25.5367 8.43911 25.5364C8.68962 25.5364 8.97148 25.4556 9.26895 25.2848L20.021 19.0993L23.7142 16.9744C24.1832 16.7046 24.4466 16.3566 24.4906 16.0021V16.0006C24.4466 15.6453 24.1833 15.2975 23.7142 15.0277L20.0207 12.903L9.26898 6.71756C8.97088 6.5465 8.68882 6.46533 8.43764 6.46533C8.18155 6.46533 7.95814 6.5497 7.78375 6.7088H7.78369Z" fill="#00C1FF"/>
<path d="M7.78459 25.292L7.72953 25.2387C7.51399 25.0078 7.38672 24.6492 7.38672 24.1849V24.2941V7.70742V7.81697C7.38672 7.3142 7.5351 6.93543 7.78369 6.70835L16.9613 16.0005L7.78459 25.292Z" fill="url(#paint0_linear)"/>
<path d="M20.0215 19.0991L16.9619 16.0007L20.0213 12.9028L23.7148 15.0274C24.1838 15.2973 24.4472 15.645 24.4912 16.0004V16.0018C24.4472 16.3564 24.1838 16.7045 23.7148 16.9742L20.0216 19.0991" fill="url(#paint1_linear)"/>
<path d="M8.43964 25.5361C8.18329 25.5364 7.95958 25.4517 7.78516 25.2923V25.2921L16.9619 16.0006L20.0215 19.099L9.26949 25.2845C8.97202 25.4553 8.69016 25.5361 8.43964 25.5361Z" fill="url(#paint2_linear)"/>
<path d="M16.9619 16.0005L7.78418 6.70836C7.95864 6.54927 8.18205 6.4649 8.4381 6.4649C8.68928 6.4649 8.97138 6.54603 9.26944 6.71713L20.0212 12.9026L16.9618 16.0005" fill="url(#paint3_linear)"/>
<path d="M8.44027 25.646C8.18392 25.646 7.95991 25.5613 7.78545 25.402L7.78515 25.4022C7.78444 25.4015 7.78367 25.4008 7.78285 25.4002L7.73514 25.353C7.73364 25.3515 7.73224 25.3498 7.73047 25.3481L7.78549 25.2924C7.95995 25.4517 8.18362 25.5364 8.44004 25.5361C8.69052 25.5361 8.97239 25.4553 9.26985 25.2845L20.0219 19.099L20.0907 19.1688L20.021 19.2089L9.26982 25.394C8.99873 25.5496 8.74087 25.6308 8.50796 25.6443C8.48542 25.6454 8.46285 25.646 8.44027 25.646" fill="url(#paint4_linear)"/>
<path d="M7.72956 25.3481C7.51401 25.1173 7.38672 24.7589 7.38672 24.2943V24.1851C7.38672 24.6494 7.51401 25.0079 7.72956 25.2389L7.78459 25.2922L7.72956 25.3481Z" fill="url(#paint5_linear)"/>
<path d="M20.0904 19.1689L20.0215 19.0991L23.7147 16.9743C24.1838 16.7045 24.4471 16.3564 24.4911 16.0019C24.4911 16.132 24.4624 16.2621 24.4055 16.3887C24.2906 16.6438 24.0603 16.8849 23.7148 17.0838L20.0904 19.1689" fill="url(#paint6_linear)"/>
<path d="M24.4914 16.0005C24.4474 15.6451 24.1841 15.2974 23.7151 15.0275L20.0215 12.9029L20.0904 12.8331H20.0907L23.7151 14.9182C24.2322 15.2159 24.4911 15.6081 24.4914 16.0005Z" fill="url(#paint7_linear)"/>
<path d="M7.38672 7.81738V7.70278C7.38672 7.66146 7.38782 7.62104 7.38992 7.58181V7.58002C7.38992 7.57948 7.38992 7.57891 7.39012 7.5783V7.57388C7.41243 7.17395 7.53511 6.862 7.72956 6.65369L7.78372 6.70873C7.53511 6.93585 7.38672 7.31461 7.38672 7.81738Z" fill="url(#paint8_linear)"/>
<path d="M20.0216 12.9028L9.26985 6.7173C8.97178 6.54623 8.68972 6.4651 8.43854 6.4651C8.18245 6.4651 7.95905 6.54947 7.78462 6.70857L7.73047 6.65349C7.74738 6.63536 7.76495 6.61788 7.78315 6.60108C7.78372 6.60047 7.78462 6.59986 7.78519 6.59929C7.95825 6.44141 8.17929 6.35704 8.43307 6.35552H8.43854C8.68972 6.35552 8.97178 6.43669 9.26985 6.60782L20.0907 12.8328L20.0904 12.8331L20.0216 12.9028Z" fill="url(#paint9_linear)"/>
<defs>
<linearGradient id="paint0_linear" x1="13.2518" y1="7.53211" x2="5.25711" y2="15.4536" gradientUnits="userSpaceOnUse">
<stop stop-color="#00A0FF"/>
<stop offset="0.00657" stop-color="#00A1FF"/>
<stop offset="0.2601" stop-color="#00BEFF"/>
<stop offset="0.5122" stop-color="#00D2FF"/>
<stop offset="0.7604" stop-color="#00DFFF"/>
<stop offset="1" stop-color="#00E3FF"/>
</linearGradient>
<linearGradient id="paint1_linear" x1="25.0626" y1="15.9472" x2="7.13894" y2="15.9472" gradientUnits="userSpaceOnUse">
<stop stop-color="#FFE000"/>
<stop offset="0.4087" stop-color="#FFBD00"/>
<stop offset="0.7754" stop-color="#FFA500"/>
<stop offset="1" stop-color="#FF9C00"/>
</linearGradient>
<linearGradient id="paint2_linear" x1="18.3971" y1="18.9464" x2="4.85063" y2="32.2709" gradientUnits="userSpaceOnUse">
<stop stop-color="#FF3A44"/>
<stop offset="1" stop-color="#C31162"/>
</linearGradient>
<linearGradient id="paint3_linear" x1="5.41884" y1="5.33076" x2="11.4563" y2="11.2784" gradientUnits="userSpaceOnUse">
<stop stop-color="#32A071"/>
<stop offset="0.0685" stop-color="#2DA771"/>
<stop offset="0.4762" stop-color="#15CF74"/>
<stop offset="0.8009" stop-color="#06E775"/>
<stop offset="1" stop-color="#00F076"/>
</linearGradient>
<linearGradient id="paint4_linear" x1="18.3908" y1="21.0957" x2="7.54123" y2="31.846" gradientUnits="userSpaceOnUse">
<stop stop-color="#CC2E36"/>
<stop offset="1" stop-color="#9C0E4E"/>
</linearGradient>
<linearGradient id="paint5_linear" x1="8.60942" y1="7.53229" x2="1.56622" y2="14.5117" gradientUnits="userSpaceOnUse">
<stop stop-color="#008DE0"/>
<stop offset="0.00657" stop-color="#008DE0"/>
<stop offset="0.2601" stop-color="#00A7E0"/>
<stop offset="0.5122" stop-color="#00B8E0"/>
<stop offset="0.7604" stop-color="#00C4E0"/>
<stop offset="1" stop-color="#00C7E0"/>
</linearGradient>
<linearGradient id="paint6_linear" x1="25.0626" y1="16.0012" x2="7.13887" y2="16.0012" gradientUnits="userSpaceOnUse">
<stop stop-color="#E0C500"/>
<stop offset="0.4087" stop-color="#E0A600"/>
<stop offset="0.7754" stop-color="#E09100"/>
<stop offset="1" stop-color="#E08900"/>
</linearGradient>
<linearGradient id="paint7_linear" x1="25.0629" y1="16.0012" x2="7.13922" y2="16.0012" gradientUnits="userSpaceOnUse">
<stop stop-color="#FFE840"/>
<stop offset="0.4087" stop-color="#FFCE40"/>
<stop offset="0.7754" stop-color="#FFBC40"/>
<stop offset="1" stop-color="#FFB540"/>
</linearGradient>
<linearGradient id="paint8_linear" x1="8.60186" y1="7.54527" x2="1.82123" y2="13.9733" gradientUnits="userSpaceOnUse">
<stop stop-color="#40B8FF"/>
<stop offset="0.00657" stop-color="#40B9FF"/>
<stop offset="0.2601" stop-color="#40CEFF"/>
<stop offset="0.5122" stop-color="#40DDFF"/>
<stop offset="0.7604" stop-color="#40E7FF"/>
<stop offset="1" stop-color="#40EAFF"/>
</linearGradient>
<linearGradient id="paint9_linear" x1="5.40587" y1="7.29607" x2="10.2507" y2="12.0966" gradientUnits="userSpaceOnUse">
<stop stop-color="#65B895"/>
<stop offset="0.0685" stop-color="#62BD95"/>
<stop offset="0.4762" stop-color="#50DB97"/>
<stop offset="0.8009" stop-color="#44ED98"/>
<stop offset="1" stop-color="#40F498"/>
</linearGradient>
</defs>GooglePlay
</svg>
