<svg width="24" height="24" viewBox="0 0 24 24" fill="none" xmlns="http://www.w3.org/2000/svg">
<path d="M12 22L11.4367 22.8262C11.7765 23.0579 12.2235 23.0579 12.5633 22.8262L12 22ZM19 10.1818C19 12.9701 17.2249 15.6834 15.2664 17.7977C14.3062 18.8342 13.3428 19.683 12.6185 20.2729C12.2571 20.5672 11.9572 20.7955 11.7496 20.9488C11.6459 21.0255 11.5653 21.0833 11.5118 21.1212C11.4851 21.1401 11.4651 21.1541 11.4524 21.1629C11.4461 21.1673 11.4416 21.1704 11.4389 21.1722C11.4376 21.1731 11.4367 21.1737 11.4364 21.174C11.4362 21.1741 11.4361 21.1742 11.4361 21.1741C11.4362 21.1741 11.4363 21.174 11.4363 21.174C11.4365 21.1739 11.4367 21.1738 12 22C12.5633 22.8262 12.5636 22.8261 12.5639 22.8259C12.564 22.8258 12.5643 22.8256 12.5646 22.8254C12.5651 22.825 12.5658 22.8246 12.5666 22.824C12.5681 22.823 12.5702 22.8216 12.5727 22.8198C12.5777 22.8164 12.5847 22.8116 12.5935 22.8055C12.611 22.7932 12.636 22.7758 12.6679 22.7532C12.7316 22.7081 12.8229 22.6425 12.9379 22.5576C13.1678 22.3878 13.4929 22.1402 13.8815 21.8237C14.6572 21.192 15.6938 20.2794 16.7336 19.1568C18.7751 16.953 21 13.7572 21 10.1818H19ZM12 3C15.8449 3 19 6.19411 19 10.1818H21C21 5.13214 16.9916 1 12 1V3ZM5 10.1818C5 6.19411 8.15507 3 12 3V1C7.00837 1 3 5.13214 3 10.1818H5ZM12 22C12.5633 21.1738 12.5635 21.1739 12.5637 21.174C12.5637 21.174 12.5638 21.1741 12.5639 21.1741C12.5639 21.1742 12.5638 21.1741 12.5636 21.174C12.5633 21.1737 12.5624 21.1731 12.5611 21.1722C12.5584 21.1704 12.5539 21.1673 12.5476 21.1629C12.5349 21.1541 12.5149 21.1401 12.4882 21.1212C12.4347 21.0833 12.3541 21.0255 12.2504 20.9488C12.0428 20.7955 11.7429 20.5672 11.3815 20.2729C10.6572 19.683 9.69377 18.8342 8.73362 17.7977C6.77507 15.6834 5 12.9701 5 10.1818H3C3 13.7572 5.22493 16.953 7.26638 19.1568C8.30623 20.2794 9.34284 21.192 10.1185 21.8237C10.5071 22.1402 10.8322 22.3878 11.0621 22.5576C11.1771 22.6425 11.2684 22.7081 11.3321 22.7532C11.364 22.7758 11.389 22.7932 11.4065 22.8055C11.4153 22.8116 11.4223 22.8164 11.4273 22.8198C11.4298 22.8216 11.4319 22.823 11.4334 22.824C11.4342 22.8246 11.4349 22.825 11.4354 22.8254C11.4357 22.8256 11.436 22.8258 11.4361 22.8259C11.4364 22.8261 11.4367 22.8262 12 22ZM13.6667 10.1818C13.6667 11.1571 12.8994 11.9091 12 11.9091V13.9091C14.0461 13.9091 15.6667 12.219 15.6667 10.1818H13.6667ZM12 8.45455C12.8994 8.45455 13.6667 9.20657 13.6667 10.1818H15.6667C15.6667 8.14461 14.0461 6.45455 12 6.45455V8.45455ZM10.3333 10.1818C10.3333 9.20657 11.1006 8.45455 12 8.45455V6.45455C9.95389 6.45455 8.33333 8.14461 8.33333 10.1818H10.3333ZM12 11.9091C11.1006 11.9091 10.3333 11.1571 10.3333 10.1818H8.33333C8.33333 12.219 9.95389 13.9091 12 13.9091V11.9091Z" fill="#666666"/>
</svg>
