<svg width="64" height="64" viewBox="0 0 64 64" fill="none" xmlns="http://www.w3.org/2000/svg">
<path d="M32 61C48.0163 61 61 48.0163 61 32C61 15.9837 48.0163 3 32 3C15.9837 3 3 15.9837 3 32C3 48.0163 15.9837 61 32 61Z" stroke="#FF6652" stroke-width="4" stroke-miterlimit="10"/>
<path d="M35.75 16.81C35.75 19.06 34.07 40.75 32 40.75C29.93 40.75 28.25 19.06 28.25 16.81C28.2121 15.7752 28.5851 14.7674 29.2878 14.0067C29.9904 13.246 30.9654 12.7942 32 12.75C33.0346 12.7942 34.0096 13.246 34.7122 14.0067C35.4149 14.7674 35.7879 15.7752 35.75 16.81Z" fill="#FF6652"/>
<path d="M32 49.75C33.3807 49.75 34.5 48.6307 34.5 47.25C34.5 45.8693 33.3807 44.75 32 44.75C30.6193 44.75 29.5 45.8693 29.5 47.25C29.5 48.6307 30.6193 49.75 32 49.75Z" fill="#FF6652"/>
</svg>
