<svg width="64" height="64" viewBox="0 0 64 64" fill="none" xmlns="http://www.w3.org/2000/svg">
<path d="M32 61C48.0163 61 61 48.0163 61 32C61 15.9837 48.0163 3 32 3C15.9837 3 3 15.9837 3 32C3 48.0163 15.9837 61 32 61Z" stroke="#FF6652" stroke-width="4" stroke-miterlimit="10"/>
<path d="M24.2266 21.3934C23.4456 20.6124 22.1793 20.6124 21.3982 21.3934C20.6172 22.1745 20.6172 23.4408 21.3982 24.2218L39.783 42.6066C40.564 43.3877 41.8304 43.3877 42.6114 42.6066C43.3925 41.8256 43.3925 40.5592 42.6114 39.7782L24.2266 21.3934Z" fill="#FF6652"/>
<path d="M42.6066 24.2266C43.3876 23.4456 43.3876 22.1793 42.6066 21.3982C41.8255 20.6172 40.5592 20.6172 39.7782 21.3982L21.3934 39.783C20.6123 40.564 20.6123 41.8304 21.3934 42.6114C22.1744 43.3925 23.4408 43.3925 24.2218 42.6114L42.6066 24.2266Z" fill="#FF6652"/>
</svg>
