<svg width="24" height="24" viewBox="0 0 24 24" fill="none" xmlns="http://www.w3.org/2000/svg">
<path d="M14.6276 5.07166C14.0864 4.96167 13.5584 5.31125 13.4485 5.85247C13.3385 6.39369 13.688 6.9216 14.2293 7.0316L14.6276 5.07166ZM17.2074 10.1544C17.3091 10.6972 17.8316 11.0549 18.3744 10.9532C18.9173 10.8515 19.2749 10.329 19.1732 9.78618L17.2074 10.1544ZM14.5434 1.09C13.9947 1.02652 13.4985 1.4198 13.435 1.96842C13.3716 2.51704 13.7648 3.01326 14.3135 3.07674L14.5434 1.09ZM21.0056 10.0676C21.0648 10.6167 21.558 11.0138 22.1071 10.9546C22.6562 10.8954 23.0533 10.4022 22.9941 9.85311L21.0056 10.0676ZM21.0475 20.8532H20.0475L20.0475 20.8571L21.0475 20.8532ZM18.9713 22.8374L18.8589 23.831C18.8651 23.8317 18.8713 23.8324 18.8776 23.8329L18.9713 22.8374ZM10.7523 19.7917L11.3121 18.963L11.3042 18.9578L10.7523 19.7917ZM5.03799 13.8393L5.89172 13.3185L5.88717 13.3112L5.03799 13.8393ZM2.11418 5.23814L1.11792 5.32457C1.11836 5.32957 1.11883 5.33457 1.11934 5.33956L2.11418 5.23814ZM4.00942 3.07545V2.07545L4.00844 2.07545L4.00942 3.07545ZM6.86656 3.07545V4.0755L6.87681 4.07539L6.86656 3.07545ZM8.77133 4.7818L9.76344 4.65618L9.76224 4.64734L8.77133 4.7818ZM9.43799 7.56949L8.49657 7.90673L8.49736 7.90893L9.43799 7.56949ZM9.00942 9.66275L9.73082 10.3553L9.73467 10.3512L9.00942 9.66275ZM7.7999 10.9227L7.07851 10.2301C6.77644 10.5448 6.71316 11.0189 6.92215 11.4018L7.7999 10.9227ZM13.5142 16.8751L13.0046 17.7354C13.4041 17.9721 13.914 17.9026 14.2356 17.5676L13.5142 16.8751ZM14.7237 15.6151L14.0062 14.9186L14.0023 14.9226L14.7237 15.6151ZM16.7332 15.1687L16.3686 16.0999L16.3709 16.1008L16.7332 15.1687ZM19.4094 15.8631L19.5548 14.8737L19.5455 14.8725L19.4094 15.8631ZM14.2293 7.0316C15.7134 7.33322 16.9073 8.55201 17.2074 10.1544L19.1732 9.78618C18.7308 7.42428 16.9492 5.54349 14.6276 5.07166L14.2293 7.0316ZM14.3135 3.07674C17.8032 3.48058 20.6056 6.35908 21.0056 10.0676L22.9941 9.85311C22.4997 5.27005 19.0147 1.60743 14.5434 1.09L14.3135 3.07674ZM20.0475 17.877V20.8532H22.0475V17.877H20.0475ZM20.0475 20.8571C20.0487 21.1482 19.9315 21.417 19.7395 21.6004L21.1213 23.0463C21.7198 22.4743 22.0507 21.6756 22.0475 20.8493L20.0475 20.8571ZM19.7395 21.6004C19.5494 21.7821 19.3043 21.8643 19.0651 21.8418L18.8776 23.8329C19.7067 23.911 20.521 23.62 21.1213 23.0463L19.7395 21.6004ZM19.0838 21.8437C16.3154 21.5303 13.6534 20.5447 11.312 18.9631L10.1925 20.6204C12.7978 22.3803 15.766 23.4809 18.8589 23.831L19.0838 21.8437ZM11.3042 18.9578C9.12763 17.5171 7.27889 15.5926 5.89169 13.3186L4.1843 14.3601C5.72154 16.8801 7.77469 19.02 10.2003 20.6256L11.3042 18.9578ZM5.88717 13.3112C4.35897 10.8539 3.40638 8.05351 3.10903 5.13672L1.11934 5.33956C1.44721 8.55571 2.49792 11.6486 4.18881 14.3674L5.88717 13.3112ZM3.11044 5.15172C3.08538 4.8629 3.17919 4.58331 3.35652 4.38097L1.85235 3.06282C1.30874 3.68316 1.04674 4.50401 1.11792 5.32457L3.11044 5.15172ZM3.35652 4.38097C3.53231 4.18036 3.77096 4.07568 4.0104 4.07545L4.00844 2.07545C3.17854 2.07626 2.3975 2.44075 1.85235 3.06282L3.35652 4.38097ZM4.00942 4.07545H6.86656V2.07545H4.00942V4.07545ZM6.87681 4.07539C7.29757 4.07108 7.71013 4.39831 7.78041 4.91625L9.76224 4.64734C9.56491 3.19299 8.34767 2.06021 6.85631 2.0755L6.87681 4.07539ZM7.77925 4.90741C7.90894 5.93173 8.14951 6.93788 8.49657 7.90673L10.3794 7.23225C10.0816 6.40096 9.8749 5.53676 9.7634 4.65618L7.77925 4.90741ZM8.49736 7.90893C8.63307 8.285 8.54168 8.703 8.28417 8.97426L9.73467 10.3512C10.5229 9.52092 10.7662 8.30414 10.3786 7.23006L8.49736 7.90893ZM8.28803 8.97022L7.07851 10.2301L8.52128 11.6152L9.73081 10.3553L8.28803 8.97022ZM6.92215 11.4018C8.3622 14.0399 10.4621 16.2295 13.0046 17.7354L14.0238 16.0147C11.7976 14.6961 9.94913 12.7728 8.67764 10.4435L6.92215 11.4018ZM14.2356 17.5676L15.4451 16.3077L14.0023 14.9226L12.7928 16.1825L14.2356 17.5676ZM15.4412 16.3117C15.6951 16.0501 16.0552 15.9771 16.3686 16.0999L17.0978 14.2375C16.0191 13.8152 14.8098 14.0908 14.0062 14.9186L15.4412 16.3117ZM16.3709 16.1008C17.3075 16.4648 18.2812 16.7175 19.2733 16.8538L19.5455 14.8725C18.709 14.7575 17.8871 14.5443 17.0955 14.2366L16.3709 16.1008ZM19.264 16.8525C19.6911 16.9153 20.0605 17.3193 20.0478 17.8532L22.0472 17.9008C22.0825 16.4204 21.0431 15.0925 19.5548 14.8738L19.264 16.8525Z" fill="#212121"/>
</svg>
