<svg width="64" height="64" viewBox="0 0 64 64" fill="none" xmlns="http://www.w3.org/2000/svg">
<path d="M37.8281 14.7031C42.8977 15.7462 46.8615 19.9264 47.8506 25.2726" stroke="#FF6652" stroke-width="3" stroke-linecap="round"/>
<path d="M37.8281 4C48.433 5.24242 56.8084 14.0639 57.9999 25.246" stroke="#FF6652" stroke-width="3" stroke-linecap="round"/>
<path fill-rule="evenodd" clip-rule="evenodd" d="M56.4628 46.5993V54.6268C56.4686 56.1337 55.8717 57.5733 54.8188 58.592C53.7658 59.6107 52.3545 60.1141 50.9314 59.9785C43.1236 59.0838 35.6237 56.2701 29.0342 51.7637C22.9036 47.6554 17.7059 42.174 13.8102 35.7087C9.52207 28.7281 6.85347 20.7803 6.02061 12.5093C5.89241 11.0132 6.36638 9.52915 7.32674 8.41967C8.28711 7.31019 9.64543 6.67746 11.0699 6.67604H18.6819C21.229 6.64961 23.4001 8.61861 23.7566 11.2785C24.0778 13.8474 24.6737 16.3698 25.5327 18.7975C26.2298 20.7532 25.7839 22.9579 24.3909 24.4435L21.1685 27.8418C24.7805 34.5409 30.0401 40.0876 36.3925 43.8968L39.6149 40.4985C41.0236 39.0294 43.1142 38.5592 44.9686 39.2943C47.2707 40.2002 49.6625 40.8286 52.0985 41.1674C54.65 41.547 56.5267 43.8828 56.4628 46.5993V46.5993Z" stroke="#7373FF" stroke-width="3"/>
</svg>
