<svg width="24" height="24" viewBox="0 0 24 24" fill="none" xmlns="http://www.w3.org/2000/svg">
<path d="M14.6266 5.07166C14.0854 4.96167 13.5575 5.31125 13.4475 5.85247C13.3375 6.39369 13.6871 6.9216 14.2283 7.0316L14.6266 5.07166ZM17.2064 10.1544C17.3081 10.6972 17.8306 11.0549 18.3734 10.9532C18.9163 10.8515 19.2739 10.329 19.1723 9.78618L17.2064 10.1544ZM14.5424 1.09C13.9938 1.02652 13.4976 1.4198 13.4341 1.96842C13.3706 2.51704 13.7639 3.01326 14.3125 3.07674L14.5424 1.09ZM21.0046 10.0676C21.0639 10.6167 21.557 11.0138 22.1061 10.9546C22.6552 10.8954 23.0523 10.4022 22.9931 9.85311L21.0046 10.0676ZM21.0465 20.8532H20.0465L20.0465 20.8571L21.0465 20.8532ZM18.9703 22.8374L18.8579 23.831C18.8641 23.8317 18.8704 23.8324 18.8766 23.8329L18.9703 22.8374ZM10.7513 19.7917L11.3111 18.963L11.3033 18.9578L10.7513 19.7917ZM5.03702 13.8393L5.89074 13.3185L5.88619 13.3112L5.03702 13.8393ZM2.11321 5.23814L1.11695 5.32457C1.11738 5.32957 1.11785 5.33457 1.11836 5.33956L2.11321 5.23814ZM4.00844 3.07545V2.07545L4.00746 2.07545L4.00844 3.07545ZM6.86559 3.07545V4.0755L6.87584 4.07539L6.86559 3.07545ZM8.77035 4.7818L9.76247 4.65618L9.76127 4.64734L8.77035 4.7818ZM9.43702 7.56949L8.49559 7.90673L8.49639 7.90893L9.43702 7.56949ZM9.00844 9.66275L9.72984 10.3553L9.73369 10.3512L9.00844 9.66275ZM7.79892 10.9227L7.07753 10.2301C6.77546 10.5448 6.71219 11.0189 6.92118 11.4018L7.79892 10.9227ZM13.5132 16.8751L13.0036 17.7354C13.4031 17.9721 13.913 17.9026 14.2346 17.5676L13.5132 16.8751ZM14.7227 15.6151L14.0052 14.9186L14.0013 14.9226L14.7227 15.6151ZM16.7323 15.1687L16.3676 16.0999L16.37 16.1008L16.7323 15.1687ZM19.4084 15.8631L19.5538 14.8737L19.5445 14.8725L19.4084 15.8631ZM14.2283 7.0316C15.7124 7.33322 16.9063 8.55201 17.2064 10.1544L19.1723 9.78618C18.7299 7.42428 16.9482 5.54349 14.6266 5.07166L14.2283 7.0316ZM14.3125 3.07674C17.8022 3.48058 20.6046 6.35908 21.0046 10.0676L22.9931 9.85311C22.4987 5.27005 19.0137 1.60743 14.5424 1.09L14.3125 3.07674ZM20.0465 17.877V20.8532H22.0465V17.877H20.0465ZM20.0465 20.8571C20.0477 21.1482 19.9305 21.417 19.7386 21.6004L21.1204 23.0463C21.7189 22.4743 22.0498 21.6756 22.0465 20.8493L20.0465 20.8571ZM19.7386 21.6004C19.5485 21.7821 19.3033 21.8643 19.0641 21.8418L18.8766 23.8329C19.7057 23.911 20.5201 23.62 21.1204 23.0463L19.7386 21.6004ZM19.0828 21.8437C16.3144 21.5303 13.6525 20.5447 11.3111 18.9631L10.1915 20.6204C12.7968 22.3803 15.765 23.4809 18.8579 23.831L19.0828 21.8437ZM11.3033 18.9578C9.12666 17.5171 7.27792 15.5926 5.89071 13.3186L4.18332 14.3601C5.72056 16.8801 7.77371 19.02 10.1993 20.6256L11.3033 18.9578ZM5.88619 13.3112C4.35799 10.8539 3.4054 8.05351 3.10805 5.13672L1.11836 5.33956C1.44623 8.55571 2.49695 11.6486 4.18784 14.3674L5.88619 13.3112ZM3.10946 5.15172C3.08441 4.8629 3.17822 4.58331 3.35554 4.38097L1.85138 3.06282C1.30776 3.68316 1.04576 4.50401 1.11695 5.32457L3.10946 5.15172ZM3.35554 4.38097C3.53134 4.18036 3.76998 4.07568 4.00942 4.07545L4.00746 2.07545C3.17756 2.07626 2.39652 2.44075 1.85138 3.06282L3.35554 4.38097ZM4.00844 4.07545H6.86559V2.07545H4.00844V4.07545ZM6.87584 4.07539C7.2966 4.07108 7.70915 4.39831 7.77943 4.91625L9.76127 4.64734C9.56393 3.19299 8.3467 2.06021 6.85534 2.0755L6.87584 4.07539ZM7.77827 4.90741C7.90796 5.93173 8.14853 6.93788 8.4956 7.90673L10.3784 7.23225C10.0806 6.40096 9.87392 5.53676 9.76243 4.65618L7.77827 4.90741ZM8.49639 7.90893C8.6321 8.285 8.54071 8.703 8.2832 8.97426L9.73369 10.3512C10.5219 9.52092 10.7652 8.30414 10.3776 7.23006L8.49639 7.90893ZM8.28706 8.97022L7.07753 10.2301L8.52031 11.6152L9.72983 10.3553L8.28706 8.97022ZM6.92118 11.4018C8.36122 14.0399 10.4611 16.2295 13.0036 17.7354L14.0228 16.0147C11.7967 14.6961 9.94815 12.7728 8.67666 10.4435L6.92118 11.4018ZM14.2346 17.5676L15.4441 16.3077L14.0013 14.9226L12.7918 16.1825L14.2346 17.5676ZM15.4402 16.3117C15.6942 16.0501 16.0542 15.9771 16.3676 16.0999L17.0969 14.2375C16.0182 13.8152 14.8088 14.0908 14.0052 14.9186L15.4402 16.3117ZM16.37 16.1008C17.3065 16.4648 18.2802 16.7175 19.2723 16.8538L19.5445 14.8725C18.708 14.7575 17.8861 14.5443 17.0945 14.2366L16.37 16.1008ZM19.2631 16.8525C19.6901 16.9153 20.0595 17.3193 20.0468 17.8532L22.0463 17.9008C22.0815 16.4204 21.0422 15.0925 19.5538 14.8738L19.2631 16.8525Z" fill="#666666"/>
</svg>
