<svg width="64" height="64" viewBox="0 0 64 64" fill="none" xmlns="http://www.w3.org/2000/svg">
<path fill-rule="evenodd" clip-rule="evenodd" d="M7.9035 5.09056C8.08658 4.44529 8.6758 4 9.34654 4H32.5004H54.8273C55.5033 4 56.0957 4.45214 56.2741 5.10415L60.9379 22.1502C60.9624 22.2321 60.98 22.3168 60.9902 22.4039C60.9986 22.474 61.0019 22.5439 61.0004 22.6131C60.9815 26.8592 57.2993 30.1085 53.0005 30.1085C50.3451 30.1085 47.925 28.8687 46.4582 26.92C44.8824 28.8883 42.2786 30.1085 39.5005 30.1085C36.6974 30.1085 34.0717 28.8662 32.5005 26.8667C30.9293 28.8662 28.3036 30.1085 25.5005 30.1085C22.6974 30.1085 20.0717 28.8662 18.5005 26.8667C16.9293 28.8662 14.3036 30.1085 11.5005 30.1085C7.03919 30.1085 3.02729 26.9616 3.00062 22.6238C2.99766 22.5213 3.00525 22.4174 3.02418 22.3133C3.03441 22.2563 3.04786 22.2005 3.06433 22.146L7.9035 5.09056ZM57.9962 22.7663L53.6826 7H32.5004H10.4801L6.00559 22.7704C6.12512 25 8.33455 27.1085 11.5005 27.1085C14.7563 27.1085 17.0005 24.8786 17.0005 22.5803C17.0005 21.7519 17.6721 21.0803 18.5005 21.0803C19.3289 21.0803 20.0005 21.7519 20.0005 22.5803C20.0005 24.8786 22.2447 27.1085 25.5005 27.1085C28.7563 27.1085 31.0005 24.8786 31.0005 22.5803C31.0005 21.7519 31.6721 21.0803 32.5005 21.0803C33.3289 21.0803 34.0005 21.7519 34.0005 22.5803C34.0005 24.8786 36.2447 27.1085 39.5005 27.1085C42.7563 27.1085 45.0005 24.8786 45.0005 22.5803C45.0005 21.7519 45.6721 21.0803 46.5005 21.0803C47.3289 21.0803 48.0005 21.7519 48.0005 22.5803C48.0005 24.9767 50.1306 27.1085 53.0005 27.1085C55.7959 27.1085 57.8895 25.0859 57.9962 22.7663Z" fill="#7373FF"/>
<path d="M10 29.6134V55.7499C10 57.4068 11.3431 58.7499 13 58.7499H21M54 29.6134V55.7499C54 57.4068 52.6569 58.7499 51 58.7499H43" stroke="#7373FF" stroke-width="3" stroke-linecap="round"/>
<path fill-rule="evenodd" clip-rule="evenodd" d="M28.5005 34.3912C26.9725 34.3912 25.1564 34.9383 23.711 36.2835C22.2371 37.6551 21.25 39.7614 21.25 42.6742C21.25 43.6253 21.39 45.1188 22.2204 46.6103C22.9688 47.9544 24.2296 49.2094 26.2505 50.0675V58.7495C26.2505 59.4399 26.8101 59.9995 27.5005 59.9995C28.1908 59.9995 28.7505 59.4399 28.7505 58.7495V49.2048C28.7505 48.6674 28.407 48.1901 27.8974 48.0195C25.9241 47.3587 24.9313 46.3401 24.4047 45.3942C23.86 44.4159 23.75 43.3976 23.75 42.6742C23.75 40.3625 24.5129 38.9523 25.4141 38.1136C25.9687 37.5975 26.6138 37.2622 27.2505 37.0756V42.6742C27.2505 43.0769 27.4445 43.4549 27.7717 43.6897L31.2395 46.1784C31.3372 46.2533 31.4443 46.3124 31.557 46.355C31.7005 46.4095 31.8508 46.4361 32.0002 46.436C32.1497 46.4361 32.2999 46.4095 32.4435 46.355C32.5562 46.3124 32.6633 46.2533 32.761 46.1784L36.2288 43.6897C36.556 43.4549 36.75 43.0769 36.75 42.6742V37.0757C37.3866 37.2622 38.0316 37.5976 38.5862 38.1136C39.4875 38.9524 40.2505 40.3625 40.2505 42.6742C40.2505 43.3976 40.1405 44.4159 39.5958 45.3942C39.0692 46.3401 38.0764 47.3587 36.1031 48.0195C35.5935 48.1901 35.25 48.6674 35.25 49.2048V58.7495C35.25 59.4399 35.8096 59.9995 36.5 59.9995C37.1904 59.9995 37.75 59.4399 37.75 58.7495V50.0675C39.7709 49.2094 41.0317 47.9544 41.7801 46.6103C42.6105 45.1188 42.7505 43.6253 42.7505 42.6742C42.7505 39.7614 41.7632 37.6551 40.2893 36.2835C38.8438 34.9384 37.0278 34.3912 35.5 34.3912C34.8096 34.3912 34.25 34.9509 34.25 35.6412V42.0327L32.0002 43.6472L29.7505 42.0327V35.6412C29.7505 34.9509 29.1908 34.3912 28.5005 34.3912Z" fill="#FF6652"/>
</svg>
