<svg width="64" height="64" viewBox="0 0 64 64" fill="none" xmlns="http://www.w3.org/2000/svg">
<mask id="mask0" mask-type="alpha" maskUnits="userSpaceOnUse" x="0" y="0" width="64" height="64">
<rect width="64" height="64" fill="white"/>
</mask>
<g mask="url(#mask0)">
<path d="M24.1523 29.5613C23.622 28.9249 22.6761 28.8389 22.0397 29.3693C21.4033 29.8996 21.3173 30.8455 21.8477 31.4819L24.1523 29.5613ZM28 36.5216L26.8477 37.4819C27.1175 37.8056 27.511 38.001 27.932 38.0201C28.353 38.0392 28.7627 37.8803 29.0607 37.5823L28 36.5216ZM40.0607 26.5823C40.6464 25.9965 40.6464 25.0467 40.0607 24.4609C39.4749 23.8752 38.5251 23.8752 37.9393 24.4609L40.0607 26.5823ZM21.8477 31.4819L26.8477 37.4819L29.1523 35.5613L24.1523 29.5613L21.8477 31.4819ZM29.0607 37.5823L40.0607 26.5823L37.9393 24.4609L26.9393 35.4609L29.0607 37.5823Z" fill="#FF6652"/>
<path d="M53.5 35.5849C53.5 36.4133 52.8284 37.0849 52 37.0849C51.1716 37.0849 50.5 36.4133 50.5 35.5849H53.5ZM29.163 56.5C29.9914 56.5 30.663 57.1716 30.663 58C30.663 58.8284 29.9914 59.5 29.163 59.5V56.5ZM39.2643 5.5H12.3261V2.5H39.2643V5.5ZM11.5 6.32609V55.6739H8.5V6.32609H11.5ZM50.1226 15.79L40.1695 5.87397L42.2868 3.74869L52.24 13.6647L50.1226 15.79ZM50.5 35.5849V16.6986H53.5V35.5849H50.5ZM12.3261 56.5H29.163V59.5H12.3261V56.5ZM52.24 13.6647C53.0466 14.4683 53.5 15.56 53.5 16.6986H50.5C50.5 16.3576 50.3642 16.0307 50.1226 15.79L52.24 13.6647ZM11.5 55.6739C11.5 56.1301 11.8699 56.5 12.3261 56.5V59.5C10.213 59.5 8.5 57.787 8.5 55.6739H11.5ZM12.3261 5.5C11.8699 5.5 11.5 5.86985 11.5 6.32609H8.5C8.5 4.213 10.213 2.5 12.3261 2.5V5.5ZM39.2643 2.5C40.3973 2.5 41.4842 2.94901 42.2868 3.74869L40.1695 5.87397C39.9291 5.63447 39.6036 5.5 39.2643 5.5V2.5Z" fill="#7373FF"/>
<path d="M51 16.0248H42.3261C41.0414 16.0248 40 14.9834 40 13.6987V5.02478" stroke="#7373FF" stroke-width="3" stroke-linecap="round"/>
<path d="M48.3727 55.1457L47.3002 54.097L48.3727 55.1457ZM53.0202 61.1358C53.6475 61.6769 54.5947 61.6071 55.1358 60.9798C55.6769 60.3525 55.6071 59.4054 54.9798 58.8642L53.0202 61.1358ZM41.9674 56.343C37.8463 56.343 34.5 52.9941 34.5 48.8562H31.5C31.5 54.6448 36.1833 59.343 41.9674 59.343V56.343ZM34.5 48.8562C34.5 44.7182 37.8463 41.3693 41.9674 41.3693V38.3693C36.1833 38.3693 31.5 43.0675 31.5 48.8562H34.5ZM41.9674 41.3693C46.0884 41.3693 49.4348 44.7182 49.4348 48.8562H52.4348C52.4348 43.0675 47.7514 38.3693 41.9674 38.3693V41.3693ZM49.4348 48.8562C49.4348 50.8977 48.6218 52.7453 47.3002 54.097L49.4452 56.1944C51.2934 54.3042 52.4348 51.712 52.4348 48.8562H49.4348ZM47.3002 54.097C45.9428 55.4852 44.0561 56.343 41.9674 56.343V59.343C44.8971 59.343 47.5473 58.1353 49.4452 56.1944L47.3002 54.097ZM47.3929 56.2815L53.0202 61.1358L54.9798 58.8642L49.3525 54.0099L47.3929 56.2815Z" fill="#FF6652"/>
</g>
</svg>
