<?xml version="1.0" standalone="no"?><!DOCTYPE svg PUBLIC "-//W3C//DTD SVG 1.1//EN" "http://www.w3.org/Graphics/SVG/1.1/DTD/svg11.dtd"><svg t="1621417448698" class="icon" viewBox="0 0 1024 1024" version="1.1" xmlns="http://www.w3.org/2000/svg" p-id="1025" xmlns:xlink="http://www.w3.org/1999/xlink" width="24" height="24"><defs><style type="text/css"></style></defs><path d="M657.542295 754.570492c-5.539672 46.163934-33.57377 83.262951-76.883934 101.728524-24.173115 10.407869-56.571803 15.947541-82.255738 14.100984-39.952787-1.51082-77.55541-11.247213-112.304262-29.041311-12.254426-6.379016-30.72-18.96918-44.988853-30.887869-3.525246-3.021639-4.028852-4.868197-1.510819-8.393443 1.175082-1.846557 3.525246-5.371803 8.72918-12.925902 7.721967-11.247213 8.561311-12.590164 9.400656-13.933114 2.518033-3.693115 6.379016-4.028852 10.24-1.007213 0.503607 0.335738 0.503607 0.335738 0.839344 0.671475 0.503607 0.503607 0.503607 0.503607 2.014426 1.678688s2.518033 1.846557 2.853771 2.182296c37.434754 29.20918 80.912787 45.996066 124.894426 47.842623 61.104262-0.839344 105.085902-28.369836 112.975738-70.672787 8.561311-46.331803-27.86623-86.452459-99.210492-108.946886-22.326557-6.882623-78.730492-29.544918-89.138361-35.588196-48.849836-28.705574-71.68-66.308197-68.322623-112.64 4.868197-64.29377 64.629508-112.136393 140.002623-112.472131 33.57377 0 67.31541 6.882623 99.54623 20.48 11.582951 4.868197 31.895082 15.947541 38.945573 21.319344 4.028852 3.021639 4.868197 6.379016 2.518033 10.24-1.175082 2.182295-3.357377 5.539672-7.889836 12.758033-6.043279 9.568525-6.211148 9.904262-7.554098 12.086557-2.350164 3.525246-5.203934 3.860984-9.400656 1.175082-34.580984-23.165902-73.022951-34.916721-115.158033-35.756066-52.542951 1.007213-91.824262 32.23082-94.342295 74.869509-0.671475 38.441967 28.034098 66.476066 90.313443 87.795409 126.405246 40.624262 174.751475 88.299016 165.686557 163.336394m-156.118033-663.417705c82.255738 0 149.403279 78.059016 152.592787 175.758688H348.999344c3.021639-97.699672 70.16918-175.758689 152.424918-175.758688M927.307541 285.377049c0-10.24-8.057705-18.465574-18.129836-18.465574H711.428197C706.56 137.820328 614.4 34.916721 501.424262 34.916721c-112.975738 0-204.967869 102.903607-209.836065 231.994754H93.502951c-9.904262 0.167869-17.794098 8.393443-17.794099 18.465574v1.342951H75.540984l28.201967 622.121967c0 1.846557 0.167869 3.525246 0.167869 5.371803 0 0.335738 0.167869 0.671475 0.167869 1.175082v1.175082l0.167868 0.167869c4.196721 43.310164 35.588197 78.059016 78.394754 79.737705v0.167869H813.828197v-0.167869c43.478033-1.175082 78.730492-36.427541 82.423606-80.241311l0.167869-0.671476v-1.342951c0-1.175082 0.167869-2.182295 0.167869-3.357377l30.72-624.64V285.377049" fill="#ee4d2d" p-id="1026"></path></svg>
